Coordinates
version=1
nRows=9
nColumns=36
inDegrees=yes

Units are S.I. units (second, meters, Newtons, ...)
If the header above contains a line with 'inDegrees', this indicates whether rotational values are in degrees (yes) or radians (no).

endheader
time	pelvis_tilt	pelvis_list	pelvis_rotation	pelvis_tx	pelvis_ty	pelvis_tz	hip_flexion_r	hip_adduction_r	hip_rotation_r	knee_angle_r	knee_angle_r_beta	ankle_angle_r	subtalar_angle_r	mtp_angle_r	hip_flexion_l	hip_adduction_l	hip_rotation_l	knee_angle_l	knee_angle_l_beta	ankle_angle_l	subtalar_angle_l	mtp_angle_l	lumbar_extension	lumbar_bending	lumbar_rotation	arm_flex_r	arm_add_r	arm_rot_r	elbow_flex_r	pro_sup_r	arm_flex_l	arm_add_l	arm_rot_l	elbow_flex_l	pro_sup_l
      0.00000000	      5.31360923	     -4.31967732	     -3.68432885	      0.67390272	      0.93210180	      0.79829151	      6.24879325	      6.60027527	      0.40023129	     15.01795446	      0.26211275	      5.58584102	    -11.15544348	     -7.15418950	      2.58188305	     -5.06475048	      0.49550715	     63.07425550	      1.10085343	      1.33156879	    -16.98174583	     -7.15418950	    -12.03614053	      4.64698578	      0.77657398	      4.71071666	    -11.91756258	     -6.39771219	     21.63414468	     92.13737663	      9.68166082	     -7.93889511	      8.12510990	     17.94781313	     88.88907958
      0.01666670	      5.42052796	     -4.39367954	     -4.15511804	      0.66978879	      0.92811924	      0.79927511	      4.67347538	      6.75180158	     -1.00202899	     14.25001071	      0.24870961	      5.85126537	    -10.89571836	     -7.18007443	      5.49691625	     -5.40590601	      0.20744941	     64.92587906	      1.13317036	      4.28395321	    -17.03133454	     -7.18007443	    -12.14143858	      4.50813199	      1.25928524	      6.74306378	    -12.16813541	     -5.65094097	     20.19469851	     92.91861168	     10.05835242	     -7.76251007	     10.01225827	     17.13393125	     90.23374185
      0.03333330	      6.01226891	     -4.12225412	     -4.17594774	      0.66435060	      0.92883418	      0.80137086	      2.72709511	      6.45949212	     -1.56997762	     13.81865848	      0.24118109	      6.67642869	    -10.45217941	     -7.28944044	      8.12571073	     -5.30576569	      0.31431481	     65.66860323	      1.14613334	      6.36166417	    -14.81186760	     -7.28944044	    -13.22728080	      4.14942719	      2.13593761	      8.12725388	    -12.61540683	     -5.08086507	     21.08389293	     95.58797923	     10.93287489	     -8.00287101	     12.89008297	     16.36470389	     94.85631942
      0.05000000	      6.35279079	     -3.67915418	     -3.89322000	      0.66000600	      0.93203875	      0.80301013	      0.81989615	      6.10670750	     -1.94456809	     12.62168465	      0.22028995	      7.80301625	    -10.37616839	     -7.30333982	     10.70671186	     -5.07466133	      0.06938328	     64.91702068	      1.13301575	      6.08288462	    -13.61451450	     -7.30333982	    -14.23570949	      3.69481448	      2.20451119	      9.80072258	    -12.70538125	     -4.50663716	     22.24374068	     93.04363581	     11.07847332	     -8.24247455	     13.46659735	     16.05763365	     92.57472713
      0.06666670	      6.19676194	     -3.10990116	     -4.15619109	      0.65759175	      0.93558582	      0.80406181	     -0.44894849	      5.64808985	     -1.96548660	     11.68707585	      0.20397795	      8.92178217	     -9.73921135	     -7.37086991	     13.20633502	     -4.66506367	     -0.61106521	     63.06532192	      1.10069751	      5.82817149	    -12.77632857	     -7.37086991	    -14.35460747	      2.95412939	      3.07471688	     11.05957952	    -13.06960287	     -3.84161036	     23.59723208	     97.38680006	     11.09750692	     -8.57354975	     14.37208485	     15.70191443	     99.60569782
      0.08333330	      5.77856803	     -2.55461732	     -4.50646729	      0.65820472	      0.93779409	      0.80386959	     -1.52599532	      5.18746893	     -1.70924913	     10.89875169	      0.19021910	      9.40882410	     -9.67511356	     -7.37159981	     15.29218171	     -4.19790439	     -1.28531904	     60.01015530	      1.04737479	      5.96816470	    -12.20856900	     -7.37159981	    -13.96289568	      2.28472399	      3.74929434	     12.25431068	    -13.18812595	     -3.61381102	     24.60186726	     97.46255627	     10.42909487	     -8.72251082	     14.38725135	     15.26588651	     99.74525229
      0.10000000	      5.65055319	     -2.01074985	     -4.96207038	      0.65966075	      0.93867209	      0.80344226	     -2.98216385	      4.62135647	     -1.55402304	     10.28539194	      0.17951395	      9.99315545	     -9.19949654	     -7.37420385	     16.37607801	     -3.76509395	     -2.22295241	     55.91064701	      0.97582488	      6.44309054	    -11.70487046	     -7.37420385	    -13.82766879	      1.56423488	      4.67569739	     13.10207249	    -13.61886768	     -2.81526161	     26.07216831	     97.89660061	      9.76261249	     -8.79420339	     14.31380978	     14.58068408	    100.27796697
      0.11666670	      5.36666736	     -1.56124329	     -5.28911384	      0.65850537	      0.93678457	      0.80338720	     -4.26139271	      4.12906812	     -1.51108285	      9.77057562	      0.17052871	     10.24311761	     -9.09800553	     -7.37404432	     17.41727527	     -3.42372381	     -3.06217465	     51.52552056	      0.89928998	      6.54664835	    -11.67231458	     -7.37404432	    -13.45750835	      1.03203845	      5.42215480	     13.78148613	    -14.04982466	     -2.29556400	     27.67115597	     95.81308829	      8.75070389	     -8.82385121	     14.10015863	     14.30172453	     98.21596917
      0.13333330	      4.68415923	     -1.24182661	     -5.70173112	      0.65383534	      0.93477992	      0.80380594	     -4.81457775	      3.77457030	     -1.42358385	      9.67856997	      0.16892291	     10.84722513	     -8.79245059	     -7.39866118	     18.98050498	     -3.38955232	     -4.03530065	     47.30706461	      0.82566404	      6.61680113	    -11.36867354	     -7.39866118	    -12.65225217	      0.69029058	      6.28021280	     14.46284628	    -14.73766143	     -0.91332358	     28.92766806	     98.01540930	      7.98924246	     -8.85893180	     13.73383276	     13.65121816	    102.44286077
